PathFileType	4	(X/Y/Z)	Patient4_TMGait_0pt6_01_right_42.trc.trc
DataRate	CameraRate	NumFrames	NumMarkers	Units	OrigDataRate	OrigDataStartFrame	OrigNumFrames
82.840236686390	82.840236686390	5	33	mm	82.840236686390	71	       141
Frame#	Time	Sacral			L.Shoulder			Chest			R.Shoulder			Neck			R.ASIS			L.ASIS			R.Thigh.Superior			R.Thigh.Lateral			R.Thigh.Inferior			R.Patella			L.Thigh.Superior			L.Thigh.Lateral			L.Thigh.Inferior			L.Patella			L.Shank.Superior			L.Shank.Lateral			L.Shank.Inferior			R.Shank.Superior			R.Shank.Lateral			R.Shank.Inferior			R.Heel			R.Midfoot.Superior			R.Midfoot.Lateral			R.Toe			L.Heel			L.Midfoot.Lateral			L.Midfoot.Superior			L.Toe			L.Elbow			L.Wrist			R.Elbow			R.Wrist			
		X1	Y1	Z1	X2	Y2	Z2	X3	Y3	Z3	X4	Y4	Z4	X5	Y5	Z5	X6	Y6	Z6	X7	Y7	Z7	X8	Y8	Z8	X9	Y9	Z9	X10	Y10	Z10	X11	Y11	Z11	X12	Y12	Z12	X13	Y13	Z13	X14	Y14	Z14	X15	Y15	Z15	X16	Y16	Z16	X17	Y17	Z17	X18	Y18	Z18	X19	Y19	Z19	X20	Y20	Z20	X21	Y21	Z21	X22	Y22	Z22	X23	Y23	Z23	X24	Y24	Z24	X25	Y25	Z25	X26	Y26	Z26	X27	Y27	Z27	X28	Y28	Z28	X29	Y29	Z29	X30	Y30	Z30	X31	Y31	Z31	X32	Y32	Z32	X33	Y33	Z33	

71	51.355000000000	763.005770411766	1001.889160813799	481.476483206496	904.225306739099	1424.042775546425	277.226455206582	1034.009956749961	1355.868533586101	418.306537271238	981.939789651089	1432.273961145061	599.941512078567	912.109024103140	1484.739280883981	428.853832543826	997.552864396651	927.622420279076	567.003423556267	952.230972876684	953.613101732754	295.831665961132	990.569183997240	712.752167803267	537.444874211595	889.301735000406	620.855384312541	605.347339129380	942.094885614357	554.743399153910	520.057148653939	919.634455958895	469.040017162138	524.045980447827	1036.826208074012	774.615311946299	333.177428314236	987.035035343850	641.212332848919	266.319802899237	1089.707649636252	586.153722191902	330.342294731444	1114.149102934658	519.296172621298	331.064694337097	1099.820317455361	445.293025607814	322.719797109594	1036.335832390509	312.323140014676	278.244138383610	1125.007679347471	218.339661505245	338.808675908648	877.438295702993	386.325129698162	533.811200949267	792.048254068408	296.746539270133	599.684746320224	810.185118443627	196.951106981576	534.454149828091	652.164491301343	43.045478080643	509.968514812101	823.932978397586	95.535363239773	543.800118885421	734.967519945622	36.299767460536	584.296783062694	943.506876530324	41.157419709699	575.028427545247	1047.179034371171	39.949920593789	387.531558460180	1117.879124620584	43.841278740305	304.525967364181	1186.501481633201	123.190423091300	320.823180631723	1320.063914089671	96.341901031149	291.488419658258	781.791088121828	1083.027762268540	203.721434504804	745.899745244342	827.977759952450	220.363648209820	1175.753010906779	1159.403949272339	694.706475780530	1332.029882462612	1317.639583026226	585.367821826273	
72	51.367071428571	765.104842482616	1000.270027788750	479.389699470917	904.513460262382	1422.560810626500	275.425336804466	1034.619891742457	1354.909188439692	416.410692842751	982.209239053762	1430.908912650240	598.203694819436	912.432930992984	1483.316458838100	427.098918412454	999.553555890090	926.154698973019	565.361625178499	954.682379092226	951.784766299641	294.089858244338	991.038854584401	710.926291190764	536.560369038692	888.521998475246	619.720341462825	604.151916806261	941.242078048968	552.990299631691	519.307856905454	917.937313133659	466.911202491494	523.236849410372	1038.904588281522	772.082580358536	331.049594553468	986.632465053665	638.567602527946	265.499422956497	1089.987953620127	583.293530427435	328.344831867826	1112.650158966606	515.457207829860	329.974533411225	1097.684922085173	441.438098263750	321.914002701045	1032.145485392902	309.238317178626	278.144265773542	1119.595966085750	214.236701514405	338.913124351801	874.391986686730	384.831262881532	533.000038509262	787.802943755970	296.640701685959	599.230620112451	804.535444863689	196.449531978564	534.279665038625	644.830981391283	43.593827707080	510.302456113547	816.907644566296	95.498556257135	543.908916190261	727.755746035443	36.427381426932	584.422299939074	936.349973734730	40.854133857079	575.191223992093	1038.280484613799	38.809745931014	388.457940024604	1108.373762226706	40.939049936435	304.745454389873	1179.690686409462	117.665936424703	321.151696327812	1312.287293604828	86.411204753059	290.518279501541	782.468297706610	1081.586600334016	201.795427188458	747.565803163371	826.317137670305	217.917359048609	1177.066691194334	1158.588658125216	692.824026580501	1330.281958639341	1319.270436179003	582.928788366411	
73	51.379142857143	767.181351665909	998.733633929873	477.241570918081	905.026404879986	1421.036922534744	273.400344873968	1035.334495939528	1353.990972705995	414.430221267120	982.453285587673	1429.667738417375	596.349806669983	912.860952542246	1481.975615010779	425.123985117445	1001.501263013964	924.744100960982	563.718203488442	957.193869073467	950.069519590737	292.398472318607	991.873432202606	709.198847322066	535.637956927600	888.250354592115	618.555580652447	602.809937319954	941.043823421480	551.274561554009	518.394176368296	917.029091034679	464.589976964949	522.331924681262	1040.881352512916	769.572829941490	328.953048055815	986.352928115407	636.247481944123	264.378583642708	1090.220071021455	580.655537167395	326.335803235555	1111.218120931066	511.993417787989	328.685403584849	1095.693382037129	437.955865007774	320.852319375681	1028.295312320912	306.462376527716	277.732874426227	1114.577840993274	210.545114531487	338.760929673892	871.920377178418	383.284345632432	532.077643569299	783.967358732647	296.662660530138	598.674888031214	799.178085264860	196.056478567918	534.068795327366	637.528766804487	44.565104834193	510.695625534542	810.029710026714	95.491324107907	544.018246933805	720.585678623721	36.784639292986	584.588807742421	929.217481595043	40.487454389157	575.335294045362	1029.780707688582	37.990702047086	389.096412513275	1099.330828417499	38.519719580920	304.744327151747	1173.245374606166	112.642831336236	321.388049074799	1304.859759555418	77.119361638265	289.616385132374	783.909515280916	1079.817634857329	199.545561479999	750.425055950262	824.275228627173	215.063372209491	1177.511434355365	1157.038946183342	691.105323670693	1328.615985088275	1319.367161703593	580.722161161357	
74	51.391214285714	769.162795231907	997.366901199535	475.072732938819	905.783164024091	1419.550897633900	271.156703045633	1036.154598317824	1353.169705817873	412.379474677085	982.692361220226	1428.645645073002	594.374184235628	913.412650950812	1480.800032795227	422.933517652897	1003.330178139521	923.475990573172	562.070530637056	959.669810644338	948.579767279089	290.755307463588	993.094742260233	707.663657729073	534.613736627108	888.619459131006	617.379009995764	601.301484079357	941.662248631662	549.650949450607	517.276332658777	917.126366022464	462.093750955769	521.336719944572	1042.708943337276	767.267532851681	326.897189841361	986.226184193641	634.393952562415	262.960773393985	1090.400830155985	578.403634197743	324.310009450546	1109.911644175682	509.085673974627	327.164179406740	1093.905848277751	434.994201732307	319.529656992555	1024.849447622122	304.142193367563	277.026034656403	1110.017140088313	207.421580127418	338.353998198199	870.207546261958	381.727995687069	531.045854462795	780.685868062452	296.894159207010	597.993063440557	794.234807324946	195.850626628429	533.803409091425	630.320333373344	46.160351602268	511.108058922103	803.376919798975	95.548368280217	544.115360114631	713.488247380099	37.501233045462	584.765982430089	922.104692473221	40.031472685133	575.443763193179	1021.845178384622	37.504282588594	389.495388898263	1090.918887893504	36.659400954060	304.577669189533	1167.200324677126	108.348896303810	321.525364852215	1297.856522542298	68.941354460234	288.804541897811	786.141523642861	1077.797428913525	196.990323284224	754.467023926763	821.942037512370	211.825760892836	1177.048282655412	1154.819606387963	689.540000389119	1327.073903252428	1317.931626079712	578.711234878848	
75	51.403285714286	770.984962436718	996.256777622194	472.914940004026	906.784599543857	1418.191461554872	268.711673627819	1037.069778454350	1352.507284754629	410.276293224053	982.941417331267	1427.940036305929	592.274071507047	914.093688413932	1479.871880063685	420.539957091088	1004.977412020706	922.443230252846	560.423392945649	962.028116969106	947.420537201888	289.150769854921	994.714721109038	706.423270318659	533.436331656995	889.751761506281	616.218160791562	599.625579111857	943.256571271980	548.182825011540	515.944101435453	918.437558357864	459.462695659775	520.287712934241	1044.369500606274	765.343957816707	324.875765283773	986.254558636057	633.106153705331	261.291992020868	1090.518289272869	576.650876989799	322.258587915426	1108.744262183507	506.835129129951	325.420986954674	1092.316428925601	432.632022764666	317.988447337342	1021.770383554705	302.376587686499	276.060552075852	1105.841015796368	204.943001660232	337.727509399348	869.439662426097	380.216192590709	529.923818406586	778.109363472298	297.430618070991	597.165839628686	789.841535214448	195.926640629856	533.466920679200	623.296281797087	48.605848191722	511.472183127649	797.041762238918	95.720426269360	544.183341731585	706.507055701504	38.734122917390	584.906204559812	915.005132605167	39.461691770787	575.502012850362	1014.468772858048	37.315229326994	389.696197468765	1083.142963922372	35.359377675640	304.298027039690	1161.458772371370	104.908727538919	321.567756523777	1291.225997485607	62.195490288959	288.111537028466	789.189687871583	1075.618808659530	194.148842028960	759.689126664677	819.424358597553	208.239907606116	1175.628914125105	1152.032720486056	688.116223499458	1325.682253474024	1314.967585656496	576.856706616672	
